<svg width="29" height="29" viewBox="0 0 29 29" fill="none" xmlns="http://www.w3.org/2000/svg">
<path d="M10.7432 28.0799C11.4517 28.0799 12.0119 27.7678 12.4074 27.1599L27.9784 2.71105C28.275 2.23456 28.3904 1.8731 28.3904 1.49519C28.3904 0.591503 27.7971 0 26.8909 0C26.2319 0 25.8693 0.213598 25.4739 0.837959L10.6773 24.3501L2.99886 14.3275C2.58693 13.7524 2.175 13.5224 1.58182 13.5224C0.642613 13.5224 0 14.1632 0 15.0669C0 15.4448 0.164773 15.872 0.477841 16.2662L9.02954 27.1269C9.52386 27.7678 10.0347 28.0799 10.7432 28.0799Z" fill="#F4845F"/>
</svg>
