<svg width="23" height="23" viewBox="0 0 23 23" fill="none" xmlns="http://www.w3.org/2000/svg">
<path d="M21.6537 0.203567C21.3154 -0.0297659 20.872 -0.0647661 20.4987 0.110234L0.665381 9.45523C0.245381 9.65357 -0.0112851 10.0736 0.000381521 10.5286C0.000381521 10.9836 0.280381 11.4036 0.700381 11.5786L4.62038 13.2936L16.3337 5.83857L8.16705 15.1719V22.1719L14.537 17.6219L19.367 19.7336C19.5187 19.8036 19.6704 19.8269 19.8337 19.8269C20.0437 19.8269 20.2537 19.7686 20.4404 19.6519C20.6017 19.5554 20.737 19.4211 20.8346 19.2604C20.9321 19.0998 20.9891 18.9178 21.0004 18.7302L22.167 1.23023C22.1904 0.821901 22.0037 0.425234 21.6654 0.191901L21.6537 0.203567Z" fill="#F4845F"/>
</svg>
