<svg width="32" height="25" viewBox="0 0 32 25" fill="none" xmlns="http://www.w3.org/2000/svg">
<path d="M26.6065 9.84899C25.7332 9.84899 25.0141 9.12992 25.0141 8.25675C25.0141 7.3707 25.7332 6.66445 26.6065 6.66445C27.4925 6.66445 28.2115 7.3707 28.2115 8.25675C28.2115 9.12992 27.4925 9.84899 26.6065 9.84899ZM4.03205 24.4876H27.5053C30.1762 24.4876 31.5374 23.1522 31.5374 20.507V7.06251C31.5374 4.41729 30.1762 3.09466 27.5053 3.09466H23.8328C22.8184 3.09466 22.5102 2.88921 21.9324 2.24716L20.9051 1.09148C20.263 0.385228 19.6081 0 18.2855 0H13.162C11.8393 0 11.1845 0.385228 10.5424 1.09148L9.51515 2.24716C8.93727 2.87637 8.61628 3.09466 7.61469 3.09466H4.03205C1.3483 3.09466 0 4.41729 0 7.06251V20.507C0 23.1522 1.3483 24.4876 4.03205 24.4876ZM15.7686 20.6996C11.8779 20.6996 8.75754 17.5921 8.75754 13.6756C8.75754 9.77197 11.8779 6.66445 15.7686 6.66445C19.6595 6.66445 22.767 9.77197 22.767 13.6756C22.767 17.5921 19.6467 20.6996 15.7686 20.6996ZM15.7686 18.7478C18.568 18.7478 20.828 16.5006 20.828 13.6756C20.828 10.8634 18.568 8.60343 15.7686 8.60343C12.9693 8.60343 10.6965 10.8634 10.6965 13.6756C10.6965 16.5006 12.9822 18.7478 15.7686 18.7478Z" fill="#F4845F"/>
</svg>
