<svg width="95" height="91" viewBox="0 0 95 91" fill="none" xmlns="http://www.w3.org/2000/svg">
<path d="M51.0588 1.09301C49.2654 0.0692578 47.051 0.0692578 45.2393 1.09301L4.24661 24.493C1.94077 25.8093 0.806149 28.5149 1.48326 31.0743C2.16037 33.6336 4.50281 35.4252 7.15636 35.4252H13.0125V73.4502L3.6427 80.4702C2.16037 81.5671 1.30026 83.3038 1.30026 85.1502C1.30026 88.386 3.9172 91.0002 7.15636 91.0002H89.1418C92.3809 91.0002 94.9979 88.386 94.9979 85.1502C94.9979 83.3038 94.1378 81.5671 92.6554 80.4702L83.2857 73.4502V35.4252H89.1418C91.7953 35.4252 94.1195 33.6336 94.7966 31.0743C95.4737 28.5149 94.3391 25.8093 92.0332 24.493L51.0405 1.09301H51.0588ZM74.5015 35.4252V73.4502H62.7893V35.4252H74.5015ZM54.0052 35.4252V73.4502H42.293V35.4252H54.0052ZM33.5088 35.4252V73.4502H21.7966V35.4252H33.5088ZM48.1491 14.9502C51.3882 14.9502 54.0052 17.5644 54.0052 20.8002C54.0052 24.036 51.3882 26.6502 48.1491 26.6502C44.9099 26.6502 42.293 24.036 42.293 20.8002C42.293 17.5644 44.9099 14.9502 48.1491 14.9502Z" fill="#BABABA"/>
</svg>
