<svg width="90" height="90" viewBox="0 0 90 90" fill="none" xmlns="http://www.w3.org/2000/svg">
<path d="M65.9434 21.0643H65.9602H65.9434ZM86.8034 15.0802H69.775L71.4431 8.41176L78.609 5.9714C80.133 5.4534 81.04 3.83397 80.6005 2.2856C80.4887 1.8961 80.299 1.53337 80.0427 1.21942C79.7865 0.905464 79.4692 0.646827 79.11 0.459195C78.7509 0.271564 78.3573 0.158849 77.9533 0.127887C77.5492 0.0969252 77.1431 0.148362 76.7595 0.279077L67.9705 3.2711C67.4972 3.4325 67.0718 3.70996 66.7334 4.07812C66.395 4.44628 66.1542 4.8934 66.0331 5.3786L63.6077 15.0802H39.0993C37.4893 15.0802 36.1073 16.3182 36.0269 17.9283C36.0074 18.3328 36.0703 18.7371 36.2116 19.1166C36.353 19.4962 36.57 19.8431 36.8494 20.1363C37.1288 20.4295 37.4648 20.6629 37.8371 20.8225C38.2094 20.982 38.6102 21.0642 39.0152 21.0643H39.5294L39.7164 22.6837C39.7605 23.0619 39.942 23.4107 40.2264 23.6638C40.5109 23.9169 40.8785 24.0566 41.2592 24.0563C48.5523 24.0563 55.0337 26.0946 59.9818 29.9506C62.7339 32.0711 64.965 34.7928 66.5044 37.9075C67.3661 39.6595 68.002 41.5138 68.3968 43.4259C68.4754 43.7985 68.6961 44.1259 69.0121 44.3385C71.5559 46.0645 73.4325 48.6092 74.33 51.5494C75.2274 54.4897 75.0916 57.6486 73.9452 60.501C73.8118 60.8311 73.8019 61.1982 73.9171 61.5351C74.5796 63.4336 74.9184 65.4299 74.9194 67.4406C74.9194 71.6182 73.4982 75.5995 70.9176 78.6513C69.4546 80.3932 67.6141 81.7791 65.5357 82.7037C65.1762 82.8621 64.8934 83.1556 64.7484 83.5208C63.9717 85.5441 62.875 87.4294 61.5002 89.1047C61.443 89.1727 61.4063 89.2556 61.3945 89.3436C61.3827 89.4317 61.3962 89.5213 61.4335 89.602C61.4708 89.6826 61.5303 89.751 61.605 89.799C61.6798 89.8471 61.7667 89.8728 61.8555 89.8733H71.0579C73.3109 89.8641 75.4789 89.0117 77.135 87.484C78.7911 85.9564 79.8153 83.8641 80.0059 81.619L86.4013 21.0643H86.8875C87.2929 21.0647 87.6941 20.9829 88.0668 20.8236C88.4395 20.6643 88.776 20.4309 89.0558 20.1377C89.3356 19.8444 89.5529 19.4973 89.6945 19.1175C89.8361 18.7377 89.8991 18.3331 89.8795 17.9283C89.801 16.3182 88.4135 15.0802 86.8034 15.0802Z" fill="#BABABA"/>
<path d="M17.4543 56.9682C18.0444 56.9654 18.6292 57.0797 19.1748 57.3044C19.7205 57.5291 20.2162 57.8597 20.6333 58.2772L23.5337 61.1776C23.6031 61.2472 23.6856 61.3023 23.7764 61.34C23.8672 61.3776 23.9646 61.397 24.0629 61.397C24.1612 61.397 24.2585 61.3776 24.3493 61.34C24.4401 61.3023 24.5226 61.2472 24.5921 61.1776L27.4869 58.2772C27.9039 57.8597 28.3996 57.5291 28.9453 57.3044C29.491 57.0797 30.0758 56.9654 30.6659 56.9682H67.4266C67.6231 56.9702 67.818 56.9335 68.0003 56.8601C68.1825 56.7867 68.3485 56.6782 68.4889 56.5407C68.6292 56.4031 68.741 56.2393 68.818 56.0585C68.895 55.8778 68.9356 55.6836 68.9376 55.4872V55.4722C68.9355 53.7485 68.3391 52.0782 67.2491 50.7429C66.159 49.4076 64.642 48.4889 62.9535 48.1418C62.8002 42.5897 60.5225 37.9427 56.3131 34.6777C52.4198 31.6408 47.2174 30.04 41.2614 30.04H27.7973C15.0401 30.04 6.39873 37.2901 6.10514 48.1418C4.41673 48.4889 2.89963 49.4076 1.80959 50.7429C0.719541 52.0782 0.123203 53.7485 0.121097 55.4722C0.121097 55.869 0.278712 56.2495 0.559269 56.5301C0.839825 56.8106 1.22034 56.9682 1.61711 56.9682H17.4543ZM31.9001 62.9523C31.7036 62.9521 31.509 62.9907 31.3274 63.0658C31.1457 63.1408 30.9807 63.251 30.8417 63.3899L26.7015 67.5319C26.0001 68.2331 25.049 68.627 24.0573 68.627C23.0655 68.627 22.1144 68.2331 21.4131 67.5319L17.2729 63.3899C17.1338 63.251 16.9688 63.1408 16.7872 63.0658C16.6056 62.9907 16.4109 62.9521 16.2144 62.9523H3.23654C2.53371 62.9491 1.8524 63.1946 1.31308 63.6453C0.773761 64.096 0.411164 64.7229 0.289399 65.4151C0.176865 66.0843 0.120568 66.7617 0.121097 67.4403C0.121097 73.1607 4.07243 77.8207 8.95878 77.9124C9.41319 80.7398 10.5128 83.2943 12.1677 85.2933C14.6156 88.2498 18.1742 89.8805 22.1873 89.8805H46.8714C50.8845 89.8805 54.4431 88.2498 56.891 85.2896C58.5459 83.2905 59.6455 80.7361 60.0999 77.9086C64.9862 77.8207 68.9376 73.1607 68.9376 67.4366C68.9381 66.758 68.8818 66.0805 68.7693 65.4113C68.6467 64.7198 68.2838 64.0938 67.7446 63.6439C67.2053 63.1939 66.5244 62.949 65.8221 62.9523H31.9001Z" fill="#BABABA"/>
</svg>
