<svg width="32" height="32" viewBox="0 0 32 32" fill="none" xmlns="http://www.w3.org/2000/svg">
<path d="M23.9987 10.667H22.6654V9.33366C22.6654 5.65766 19.6747 2.66699 15.9987 2.66699C12.3227 2.66699 9.33203 5.65766 9.33203 9.33366V10.667H7.9987C7.29145 10.667 6.61318 10.9479 6.11308 11.448C5.61298 11.9481 5.33203 12.6264 5.33203 13.3337V26.667C5.33203 27.3742 5.61298 28.0525 6.11308 28.5526C6.61318 29.0527 7.29145 29.3337 7.9987 29.3337H23.9987C24.7059 29.3337 25.3842 29.0527 25.8843 28.5526C26.3844 28.0525 26.6654 27.3742 26.6654 26.667V13.3337C26.6654 12.6264 26.3844 11.9481 25.8843 11.448C25.3842 10.9479 24.7059 10.667 23.9987 10.667ZM11.9987 9.33366C11.9987 7.12832 13.7934 5.33366 15.9987 5.33366C18.204 5.33366 19.9987 7.12832 19.9987 9.33366V10.667H11.9987V9.33366ZM17.332 20.9643V24.0003H14.6654V20.9643C13.872 20.503 13.332 19.6523 13.332 18.667C13.332 17.9597 13.613 17.2815 14.1131 16.7814C14.6132 16.2813 15.2915 16.0003 15.9987 16.0003C16.7059 16.0003 17.3842 16.2813 17.8843 16.7814C18.3844 17.2815 18.6654 17.9597 18.6654 18.667C18.6654 19.651 18.1254 20.5017 17.332 20.9643Z" fill="#F4845F"/>
</svg>
