<svg width="706" height="726" viewBox="0 0 706 726" fill="none" xmlns="http://www.w3.org/2000/svg">
<path d="M163.33 61.2422V238H127.93L56.1523 134.24H54.9316V238H13.4277V61.2422H49.3164L120.361 165.002H121.826V61.2422H163.33Z" fill="#F4845F"/>
<path d="M211.049 238H166.127L226.186 61.2422H281.361L341.176 238H296.498L284.535 200.158H223.012L211.049 238ZM233.021 168.42H274.525L254.506 104.943H253.041L233.021 168.42Z" fill="#F4845F"/>
<path d="M363.049 638H318.127L378.186 461.242H433.361L493.176 638H448.498L436.535 600.158H375.012L363.049 638ZM385.021 568.42H426.525L406.506 504.943H405.041L385.021 568.42Z" fill="#F4845F"/>
<path d="M495.428 461.242H546.941L592.596 572.57H594.549L640.203 461.242H691.717V638H651.189V528.137H649.725L606.756 637.023H580.389L537.42 527.648H535.955V638H495.428V461.242Z" fill="#F4845F"/>
<path d="M209.525 492.746C200.436 478.01 184.91 472.529 166.258 477.91C138.41 485.945 126.61 512.115 137.297 549.158C148.06 586.462 171.013 602.891 199.911 594.554C225.262 587.239 235.752 569.842 230.328 549.067L191.972 560.133L182.498 527.295L263.938 503.798L271.138 528.755C285.767 579.458 259.619 620.014 211.017 634.036C156.636 649.726 109.094 623.032 91.7368 562.871C73.7733 500.609 103.397 453.36 153.837 438.807C197.71 426.149 239.331 443.168 254.974 479.634L209.525 492.746Z" fill="#F4845F"/>
<path d="M314.149 185.713C378.611 176.063 447.059 282.619 391.618 347.094C299.666 454.028 224.399 325.694 289.71 302.485C349.348 281.293 400.705 366.579 342.626 445.525C293.598 512.167 196.405 541.302 183.118 544.74" stroke="#F4845F" stroke-width="32"/>
</svg>
