<svg width="97" height="97" viewBox="0 0 97 97" fill="none" xmlns="http://www.w3.org/2000/svg">
<path fill-rule="evenodd" clip-rule="evenodd" d="M45.8461 3.12972C28.2088 4.22704 18.9923 14.215 18.1875 32.2767H35.9794C36.2022 26.0202 39.6942 21.343 46.1962 20.6534C52.5785 19.9759 58.6335 21.4961 60.4674 25.8596C62.4483 30.5731 58.0015 36.0506 55.8872 38.3498C51.9738 42.6133 45.6173 45.7233 42.3223 50.3233C39.0925 54.8307 38.5181 60.7614 38.2695 68.0197H53.9502C54.17 63.3789 54.4791 58.9335 56.5904 56.0493C60.0248 51.363 65.1537 49.1668 69.452 45.4657C73.5578 41.9282 77.8774 37.6648 78.6109 31.0657C80.8131 11.3156 64.6914 1.9536 45.8461 3.12972Z" fill="#BABABA"/>
<path d="M46.2516 93.9864C51.7193 93.9864 56.1517 89.6211 56.1517 84.2363C56.1517 78.8516 51.7193 74.4863 46.2516 74.4863C40.784 74.4863 36.3516 78.8516 36.3516 84.2363C36.3516 89.6211 40.784 93.9864 46.2516 93.9864Z" fill="#BABABA"/>
</svg>
