<svg width="91" height="91" viewBox="0 0 91 91" fill="none" xmlns="http://www.w3.org/2000/svg">
<path d="M42.8186 44.8822C42.8186 29.1403 54.5921 16.198 70.2295 14.7753L83.4122 13.582C82.5485 12.4806 81.6393 11.425 80.6393 10.4153C64.7746 -5.6019 36.0909 -2.71054 16.726 16.8865C7.45265 26.249 1.63409 37.998 0.315822 49.9765C-0.456955 56.9983 0.406737 63.5613 2.67961 69.4358L25.272 65.6724C35.4545 63.9743 42.8641 55.2543 42.8641 44.9281L42.8186 44.8822Z" fill="#BABABA"/>
<path d="M71.0493 22.577C60.1395 23.5867 51.9117 32.582 51.9117 43.5509C51.9117 58.3748 41.3201 70.9499 26.7282 73.3824L7.36328 76.595C8.27243 77.7882 9.2725 78.9815 10.3635 80.083C17.0912 86.8754 26.2282 90.501 36.4561 90.501C38.138 90.501 39.82 90.4093 41.5019 90.2257C53.3663 88.8947 65.0489 83.0202 74.2768 73.6577C83.5046 64.2952 89.3686 52.5462 90.6869 40.5677C91.4597 33.5458 90.596 26.937 88.3231 21.0625L71.0947 22.6229L71.0493 22.577Z" fill="#BABABA"/>
</svg>
